<svg xmlns="http://www.w3.org/2000/svg" viewBox="0 0 512 512" fill="currentColor"><path d="M485.016 220.691c12.422-8.422 22.188-57.266 7.797-87.016-26.859 28.125-80.109 49.859-142 72.922-64.656 24.078-71.531 41.859-94.813 42.172-23.297-.313-30.156-18.094-94.813-42.172-61.891-23.063-115.141-44.797-142-72.922-14.406 29.75-4.625 78.594 7.781 87.016C13.484 214.332 0 210.051 0 210.051s3.813 68.172 33.25 106.563c24.953 32.547 86.984 72.906 145.828 58.828 62.219-14.875 62.344-41.406 76.922-41.266 14.563-.141 14.688 26.391 76.906 41.266 58.844 14.078 120.875-26.281 145.844-58.828C508.156 278.223 512 210.051 512 210.051s-13.5 4.281-26.984 10.64zm-353.578 98.157c-25.109-11.641-46.063-37.422-43.188-73.891 12.813 5.078 48.844 9.406 69.094 17.281 23 8.953 46.031 23.984 48.922 41.25-.953 14.391-35.516 33.578-74.828 15.36zm249.125 0c-39.344 18.219-73.875-.969-74.828-15.359 2.891-17.266 25.891-32.297 48.922-41.25 20.25-7.875 56.281-12.203 69.094-17.281 2.874 36.468-18.095 62.249-43.188 73.89z"/></svg>