<svg xmlns="http://www.w3.org/2000/svg" viewBox="0 2 30 29" fill="currentColor"><path d="M16 25.06c2.232-.337 3.402 3.896 5.641 3.61 1.906-.241 1.81-3.38 3.175-4.732 1.464-1.45 4.579-1.425 5.063-3.428.503-2.08-2.442-3.57-2.864-5.668-.371-1.845 1.791-4.088.608-5.552-1.285-1.59-4.334.152-5.966-1.076-1.675-1.26-1.048-4.427-2.825-5.538-1.604-1.003-4.091-.864-5.607.267-1.704 1.272-1.226 4.09-2.506 5.788-.84 1.114-2.279 1.54-3.512 2.192-2.343 1.238-6.073.96-7.087 3.408-.855 2.065 1.911 4 3.29 5.76 1.126 1.437 3.118 2.03 4.046 3.602 1.218 2.065-.277 6.422 2.09 6.801 2.809.449 3.642-5.01 6.454-5.435"/></svg>