<svg xmlns="http://www.w3.org/2000/svg" viewBox="0 0 64 64" fill="currentColor"><path d="M6 36V6h2a3 3 0 000-6H4a4 4 0 00-4 4v34.721A7.975 7.975 0 016 36zM60 0h-4a3 3 0 000 6h2v30a7.975 7.975 0 016 2.721V4a4 4 0 00-4-4zM58 38H40c-.596 0-1.168.096-1.711.258a9.922 9.922 0 00-12.598-.006A5.938 5.938 0 0024 38H6a6 6 0 00-6 6v8c0 6.627 5.373 12 12 12h6c6.627 0 12-5.373 12-12v-8c0-.462-.058-.91-.156-1.342C30.466 42.25 31.199 42 32 42s1.534.25 2.156.658c-.098.432-.156.88-.156 1.342v8c0 6.627 5.373 12 12 12h6c6.627 0 12-5.373 12-12v-8a6 6 0 00-6-6zM18 60a1 1 0 110-2 6 6 0 006-6 1 1 0 112 0 8 8 0 01-8 8zm34 0a1 1 0 110-2 6 6 0 006-6 1 1 0 112 0 8 8 0 01-8 8z"/></svg>