<svg viewBox="2 2 45 45" xmlns="http://www.w3.org/2000/svg" fill="currentColor"><path d="M20 5.8c.2 2.2-1.1 4.1-2.7 4.2S14.2 8.4 14 6.2s1.1-4.1 2.7-4.2 3.1 1.6 3.3 3.8zM22.8 4c-1.1.1-1.9 1.5-1.8 3.1s1.1 3 2.2 2.9 1.9-1.5 1.8-3.1-1.1-3-2.2-2.9zm4.3 2.3c-.8-.1-1.5.9-1.6 2.1s.6 2.3 1.4 2.3 1.5-.9 1.6-2.1-.6-2.3-1.4-2.3zM30.7 8c-.7-.1-1.5.7-1.7 1.8a1.8 1.8 0 001 2.2c.7.1 1.4-.7 1.6-1.8a1.9 1.9 0 00-.9-2.2zm3 2.5c-.6-.1-1.2.5-1.3 1.3a1.4 1.4 0 00.6 1.7c.6.1 1.1-.5 1.3-1.3a1.4 1.4 0 00-.6-1.7zM20 12c-2 0-6 1-5 6s8 7 8 11-3 5-5 9 0 7 3 8a6.8 6.8 0 008-4c1-3-.6-4.2 1-9 1-3 3-4 4-10 1.4-8.1-7-11-14-11z"/></svg>