<svg fill="currentColor" xmlns="http://www.w3.org/2000/svg" viewBox="0 0 503.556 503.556"><path d="M500.895 280.713l-8.242-19.221c-.109-.269-.319-.47-.453-.713-.722-1.779-1.603-3.601-2.887-5.464-12.229-17.752-46.139-26.355-100.788-25.583l-9.434 61.339c-5.565.344-11.256.663-17.131.932l10.19-66.199-29.805-14.025-24.937 41.556c-1.57 2.627-4.348 4.071-7.202 4.071a8.333 8.333 0 01-4.314-1.192c-3.97-2.384-5.263-7.546-2.879-11.516l24.064-40.104-18.768-8.83-24.475 40.784c-1.57 2.627-4.348 4.071-7.202 4.071a8.333 8.333 0 01-4.314-1.192c-3.97-2.384-5.263-7.546-2.879-11.516l23.602-39.332-18.768-8.838-24.014 40.02c-1.57 2.627-4.348 4.071-7.202 4.071a8.333 8.333 0 01-4.314-1.192c-3.97-2.384-5.263-7.546-2.879-11.516l23.141-38.568-18.768-8.83-23.552 39.248c-1.57 2.627-4.348 4.071-7.202 4.071a8.333 8.333 0 01-4.314-1.192c-3.97-2.384-5.263-7.546-2.879-11.516l22.679-37.796-22.377-10.534a8.41 8.41 0 00-10.676 3.122c-1.058 1.679-13.388 20.639-36.352 34.682 6.614 13.975 13.53 27.589 16.174 30.401 8.36 7.839 12.582 19.565 11.524 32.105-1.242 14.73-3.038 30.09-5.145 45.643a4060.883 4060.883 0 01-70.035-2.887c-2.443-13.362-4.23-28.328-5.296-44.779-.831-12.808-9.527-33.112-19.238-47.096-15.083-2.652-31.66-8.544-49.748-19.078-.646-.378-1.393-.428-2.098-.621-.285-.084-.512-.26-.814-.311-7.118-1.209-14.101-11.356-14.101-20.505a8.39 8.39 0 00-8.393-8.393A8.396 8.396 0 000 156.683c0 12.918 7.814 27.766 20.01 34.153C12.976 228.204 2.426 282.652.436 288.62c-.117.353-.034.722-.109 1.091-.1.521-.327 1.016-.327 1.561v50.067a8.396 8.396 0 008.209 8.393c2.031.042 203.919 4.474 333.513 8.393 4.902.151 9.652.218 14.277.218 71.923 0 111.54-17.248 132.381-32.248 13.615-9.793 18.827-28.293 12.515-45.382zM293.77 265.798a8.39 8.39 0 018.393 8.393 8.385 8.385 0 01-8.393 8.393 8.39 8.39 0 01-8.393-8.393 8.396 8.396 0 018.393-8.393zm-33.573-8.393a8.39 8.39 0 018.393 8.393 8.385 8.385 0 01-8.393 8.393 8.39 8.39 0 01-8.393-8.393c-.001-4.633 3.76-8.393 8.393-8.393zm-33.574-8.394a8.39 8.39 0 018.393 8.393 8.385 8.385 0 01-8.393 8.393 8.39 8.39 0 01-8.393-8.393c-.001-4.632 3.76-8.393 8.393-8.393zm251.954 63.463c-20.077 14.445-60.097 31.14-136.343 28.873-114.764-3.466-286.158-7.344-325.447-8.217v-32.818c37.603 2.728 149.605 10.148 255.815 10.383h.411c1.553 0 3.106.008 4.65.008 3.131 0 6.236-.025 9.35-.042 1.989-.008 3.987-.008 5.968-.025 4.096-.025 8.158-.076 12.212-.134 2.132-.025 4.272-.05 6.387-.084 3.853-.067 7.655-.151 11.465-.243 2.266-.05 4.541-.101 6.79-.159 3.643-.101 7.218-.227 10.794-.353 2.333-.084 4.684-.159 6.992-.252 3.45-.134 6.841-.302 10.223-.462 2.333-.117 4.684-.218 6.983-.344 3.265-.185 6.446-.386 9.636-.588 2.342-.151 4.7-.294 7-.453 3.03-.218 5.976-.462 8.931-.705 2.325-.185 4.667-.378 6.941-.579a668.32 668.32 0 008.242-.823c2.291-.235 4.583-.462 6.807-.722 2.577-.294 5.053-.613 7.546-.932 2.207-.285 4.415-.571 6.547-.873 2.359-.336 4.608-.705 6.874-1.066 2.09-.336 4.18-.672 6.186-1.032 2.132-.378 4.163-.789 6.194-1.2 1.939-.386 3.878-.772 5.724-1.192 1.905-.428 3.693-.881 5.489-1.335 1.771-.453 3.542-.898 5.212-1.377 1.662-.47 3.206-.982 4.759-1.477 1.57-.512 3.139-1.016 4.591-1.553 1.427-.529 2.728-1.083 4.029-1.645 1.351-.571 2.694-1.141 3.903-1.737 1.175-.579 2.216-1.192 3.265-1.796.739-.436 1.628-.831 2.308-1.276l.294.68c3.605 9.787.902 20.052-6.728 25.55z"/><path d="M125.254 289.749c11.566.529 23.644 1.049 36.1 1.528 2.182-15.838 3.92-31.408 5.179-46.374.621-7.286-1.754-14.21-6.345-18.516-4.381-4.104-12.439-19.809-19.582-34.975-10.542 4.348-22.671 7.235-36.335 7.47 8.813 16.015 14.588 33.868 15.268 44.326 1.123 17.34 3.037 32.96 5.715 46.541z"/></svg>